HIERARCHY
ROOT reference
{
  OFFSET 0 0 0
  CHANNELS 6 Xposition Yposition Zposition Zrotation Xrotation Yrotation
  JOINT Hips
  {
    OFFSET -6.02958 88.1815 115.914
    CHANNELS 6 Xposition Yposition Zposition Zrotation Xrotation Yrotation
    JOINT Spine
    {
      OFFSET 0 7.76127 0
      CHANNELS 6 Xposition Yposition Zposition Zrotation Xrotation Yrotation
      JOINT Spine1
      {
        OFFSET 0 24.7858 0
        CHANNELS 6 Xposition Yposition Zposition Zrotation Xrotation Yrotation
        JOINT Neck
        {
          OFFSET 0 24.684 2.244
          CHANNELS 6 Xposition Yposition Zposition Zrotation Xrotation Yrotation
          JOINT Head
          {
            OFFSET 0 13.2509 -1.89299
            CHANNELS 6 Xposition Yposition Zposition Zrotation Xrotation Yrotation
            End Site
            {
              OFFSET 0 23.6624 0
            }
          }
        }
        JOINT LeftShoulder
        {
          OFFSET 3.79413 23.4442 -0.177979
          CHANNELS 6 Xposition Yposition Zposition Zrotation Xrotation Yrotation
          JOINT LeftArm
          {
            OFFSET 9.21107 0 0
            CHANNELS 6 Xposition Yposition Zposition Zrotation Xrotation Yrotation
            JOINT LeftForeArm
            {
              OFFSET 34.3528 0 0
              CHANNELS 6 Xposition Yposition Zposition Zrotation Xrotation Yrotation
              JOINT LeftHand
              {
                OFFSET 25.4606 0 0
                CHANNELS 6 Xposition Yposition Zposition Zrotation Xrotation Yrotation
                End Site
                {
                  OFFSET 14.1974 0 0
                }
              }
            }
          }
        }
        JOINT RightShoulder
        {
          OFFSET -3.76739 23.4442 -0.177979
          CHANNELS 6 Xposition Yposition Zposition Zrotation Xrotation Yrotation
          JOINT RightArm
          {
            OFFSET -9.21107 0 0
            CHANNELS 6 Xposition Yposition Zposition Zrotation Xrotation Yrotation
            JOINT RightForeArm
            {
              OFFSET -34.3528 0 0
              CHANNELS 6 Xposition Yposition Zposition Zrotation Xrotation Yrotation
              JOINT RightHand
              {
                OFFSET -25.4606 0 0
                CHANNELS 6 Xposition Yposition Zposition Zrotation Xrotation Yrotation
                End Site
                {
                  OFFSET -14.1974 0 0
                }
              }
            }
          }
        }
      }
    }
    JOINT LeftUpLeg
    {
      OFFSET 9.46496 0 0
      CHANNELS 6 Xposition Yposition Zposition Zrotation Xrotation Yrotation
      JOINT LeftLeg
      {
        OFFSET 0 -36.0737 0
        CHANNELS 6 Xposition Yposition Zposition Zrotation Xrotation Yrotation
        JOINT LeftFoot
        {
          OFFSET 0 -40.8088 0
          CHANNELS 6 Xposition Yposition Zposition Zrotation Xrotation Yrotation
          JOINT LeftToeBase
          {
            OFFSET 0 -6.15222 14.1974
            CHANNELS 6 Xposition Yposition Zposition Zrotation Xrotation Yrotation
            End Site
            {
              OFFSET 0 0 3.78598
            }
          }
        }
      }
    }
    JOINT RightUpLeg
    {
      OFFSET -9.46496 0 0
      CHANNELS 6 Xposition Yposition Zposition Zrotation Xrotation Yrotation
      JOINT RightLeg
      {
        OFFSET 0 -36.0737 0
        CHANNELS 6 Xposition Yposition Zposition Zrotation Xrotation Yrotation
        JOINT RightFoot
        {
          OFFSET 0 -40.8088 0
          CHANNELS 6 Xposition Yposition Zposition Zrotation Xrotation Yrotation
          JOINT RightToeBase
          {
            OFFSET 0 -6.15222 14.1974
            CHANNELS 6 Xposition Yposition Zposition Zrotation Xrotation Yrotation
            End Site
            {
              OFFSET 0 0 3.78598
            }
          }
        }
      }
    }
  }
}
MOTION
Frames:	4
Frame Time:	0.004
0 0 0 0 0 -0 -16.9194 78.7733 -201.672 0.852449 -0.0715267 7.97649 0 7.76127 0 0.778068 -4.63194 1.14493 3.55271e-015 24.7858 2.84217e-014 -1.20695 -3.01225 1.08187 3.55271e-015 24.684 2.244 0.547246 19.5595 -0.219985 0 13.2509 -1.89299 0.577972 1.30271 -0.135786 3.79413 23.4442 -0.177979 11.4072 0.331356 -5.8605 9.21107 0 2.84217e-014 -11.9487 -0.64219 -0.958079 34.3528 0 0 2.72634 -0.497612 -2.36391 25.4606 0 2.84217e-014 0.822974 -0.423851 2.45683 -3.76739 23.4442 -0.177979 -12.6599 -1.19917 -0.45516 -9.21107 0 5.68434e-014 14.3403 -4.19493 -3.34138 -34.3528 2.84217e-014 2.84217e-014 -2.57098 0.644232 -1.31519 -25.4606 -2.84217e-014 0 -3.17507 0.573547 1.47754 9.46496 1.42109e-014 0 -4.24373 4.75085 -2.23267 0 -36.0737 0 0.835217 -0.512754 -11.8256 0 -40.8088 0 1.66499 -2.90121 12.1575 0 -6.15222 14.1974 1.98785e-016 0 -2.38542e-015 -9.46496 0 2.84217e-014 1.3447 11.1662 -1.65143 -3.55271e-015 -36.0737 0 1.20956 -10.7608 1.16021 0 -40.8088 2.84217e-014 -3.37844 -0.722077 -21.5429 0 -6.15222 14.1974 -7.45443e-017 9.93923e-017 -1.59028e-015 
0 0 0 0 0 -0 -16.9194 78.7733 -201.672 0.852456 -0.0715258 7.98203 0 7.76127 2.84217e-014 0.778068 -4.63194 1.14493 0 24.7858 0 -1.18937 -3.01225 1.08187 -3.55271e-015 24.684 2.244 0.549604 19.5673 -0.218401 3.55271e-015 13.2509 -1.89299 0.559031 1.27863 -0.136383 3.79413 23.4442 -0.177979 11.3896 0.331356 -5.8605 9.21107 -2.84217e-014 0 -11.9336 -0.658468 -0.967763 34.3528 -2.84217e-014 0 2.71017 -0.483453 -2.3502 25.4606 0 0 0.860047 -0.409575 2.44227 -3.76739 23.4442 -0.177979 -12.6599 -1.19917 -0.45516 -9.21107 2.84217e-014 0 14.3405 -4.19048 -3.34136 -34.3528 -2.84217e-014 0 -2.57098 0.644232 -1.31519 -25.4606 0 0 -3.18045 0.573547 1.47754 9.46496 0 2.84217e-014 -4.24307 4.75083 -2.24062 -1.77636e-015 -36.0737 0 0.846311 -0.524114 -11.9014 0 -40.8088 0 1.65625 -2.90054 12.2189 1.77636e-015 -6.15222 14.1974 5.59082e-017 0 -7.95139e-016 -9.46496 0 2.84217e-014 1.3481 11.1661 -1.66902 -3.55271e-015 -36.0737 -2.84217e-014 1.20303 -10.7607 1.19459 0 -40.8088 0 -3.31544 -0.739094 -21.5676 0 -6.15222 14.1974 2.48481e-017 0 -0 
0 0 0 0 0 -0 -16.9161 78.7733 -201.672 0.852478 -0.0715227 7.99962 5.32907e-015 7.76127 0 0.778011 -4.62907 1.14493 0 24.7858 0 -1.19983 -3.01225 1.08187 -3.55271e-015 24.684 2.244 0.484484 19.4774 -0.1771 0 13.2509 -1.89299 0.706573 1.44352 -0.077528 3.79413 23.4442 -0.177979 11.3968 0.331356 -5.8605 9.21107 -2.84217e-014 0 -11.9436 -0.599181 -0.958484 34.3528 0 2.84217e-014 2.7303 -0.520914 -2.3505 25.4606 -2.84217e-014 0 0.8491 -0.446913 2.45091 -3.76739 23.4442 -0.177979 -12.6599 -1.19917 -0.455812 -9.21107 0 0 14.3394 -4.20567 -3.34461 -34.3528 0 0 -2.57098 0.644232 -1.31519 -25.4606 0 -2.84217e-014 -3.19693 0.573547 1.47754 9.46496 -1.42109e-014 0 -4.24508 4.75078 -2.25583 1.77636e-015 -36.0737 2.84217e-014 0.840005 -0.521585 -11.8867 7.10543e-015 -40.8088 -2.84217e-014 1.68534 -2.90065 12.2086 -1.77636e-015 -6.15222 14.1974 -7.45443e-017 -9.93923e-017 -0 -9.46496 0 2.84217e-014 1.34839 11.1661 -1.67051 -3.55271e-015 -36.0737 2.84217e-014 1.20342 -10.7607 1.18933 0 -40.8088 -2.84217e-014 -3.32795 -0.728761 -21.5652 0 -6.15222 14.1974 4.96962e-017 -9.93923e-017 -0 
0 0 0 0 0 -0 -16.9138 78.7733 -201.672 0.852476 -0.0715229 7.99833 0 7.76127 0 0.778537 -4.64275 1.14806 7.10543e-015 24.7858 -2.84217e-014 -1.18839 -3.01225 1.08528 0 24.684 2.244 0.497229 19.4751 -0.179854 0 13.2509 -1.89299 0.678 1.43784 -0.083326 3.79413 23.4442 -0.177979 11.3971 0.331356 -5.8605 9.21107 2.84217e-014 2.84217e-014 -11.9463 -0.648099 -0.9691 34.3528 2.84217e-014 -2.84217e-014 2.70626 -0.499162 -2.34723 25.4606 2.84217e-014 0 0.897568 -0.424537 2.45532 -3.76739 23.4442 -0.177979 -12.66 -1.20322 -0.460079 -9.21107 2.84217e-014 0 14.339 -4.20799 -3.34799 -34.3528 0 0 -2.57101 0.642923 -1.31495 -25.4606 -2.84217e-014 0 -3.19394 0.572424 1.47959 9.46496 2.84217e-014 0 -4.24865 4.75085 -2.23317 0 -36.0737 0 0.841954 -0.532637 -11.8324 7.10543e-015 -40.8088 0 1.63727 -2.9014 12.1396 3.55271e-015 -6.15222 14.1974 2.79541e-016 0 -7.95139e-016 -9.46496 0 0 1.34481 11.1662 -1.65203 -3.55271e-015 -36.0737 2.84217e-014 1.19982 -10.7607 1.19817 0 -40.8088 -2.84217e-014 -3.35944 -0.737086 -21.5963 0 -6.15222 14.1974 -5.51738e-033 1.98785e-016 1.59028e-015 
